<?xml version="1.0" standalone="no"?>
<!DOCTYPE svg PUBLIC "-//W3C//DTD SVG 20010904//EN"
 "http://www.w3.org/TR/2001/REC-SVG-20010904/DTD/svg10.dtd">
<svg version="1.0" xmlns="http://www.w3.org/2000/svg"
 width="713.000000pt" height="847.000000pt" viewBox="0 0 713.000000 847.000000"
 preserveAspectRatio="xMidYMid meet">

<g transform="translate(0.000000,847.000000) scale(0.100000,-0.100000)"
fill="#000000" stroke="none">
<path d="M3702 7649 c-49 -32 -191 -208 -263 -327 -129 -212 -127 -211 -509
-232 -354 -19 -510 -95 -690 -335 -81 -108 -177 -201 -217 -209 -27 -6 -46 -2
-196 43 -94 28 -244 43 -377 39 -108 -3 -113 -4 -136 -31 -45 -52 -49 -90 -49
-437 l1 -325 41 -200 c23 -110 64 -279 92 -375 61 -216 72 -260 60 -260 -5 0
-26 7 -47 16 -43 18 -277 38 -337 28 -77 -12 -176 -77 -223 -147 -50 -71 -72
-153 -72 -260 0 -108 16 -171 68 -272 52 -100 303 -351 457 -456 277 -190 553
-338 772 -416 49 -18 46 -8 68 -248 8 -88 22 -215 32 -282 l17 -121 -91 -96
c-50 -52 -112 -124 -137 -159 -60 -84 -141 -254 -160 -337 -20 -81 -20 -218
-2 -288 41 -152 160 -248 306 -245 96 2 182 53 255 153 20 27 43 50 50 50 14
0 14 -1 52 -105 59 -162 141 -294 241 -387 72 -66 131 -95 236 -116 239 -47
454 104 525 368 25 92 37 188 51 387 12 180 26 224 81 259 84 53 93 26 40
-116 -35 -92 -41 -121 -41 -183 0 -160 72 -288 201 -357 63 -33 67 -34 184
-35 110 0 125 2 179 28 286 133 681 620 826 1015 39 108 64 143 216 303 233
246 345 454 435 805 45 179 59 305 59 543 l0 174 128 131 c294 303 493 608
604 927 29 84 32 105 32 204 0 95 -4 119 -27 179 -45 116 -108 184 -217 234
-99 46 -303 41 -390 -10 -19 -12 -61 -46 -92 -76 l-57 -55 -101 7 c-55 4 -107
9 -115 12 -18 7 -48 72 -41 89 8 21 71 34 210 45 129 10 166 20 166 45 0 27
-77 38 -237 32 -93 -3 -153 -2 -153 4 0 5 11 36 25 69 42 100 55 167 55 286 0
104 2 113 20 119 27 9 34 43 20 96 -22 80 -36 98 -83 106 -45 7 -54 14 -171
147 -38 43 -101 102 -140 132 -76 56 -224 135 -291 153 -23 6 -124 11 -235 11
-180 0 -200 -2 -262 -24 -38 -13 -90 -40 -117 -59 l-49 -35 -68 101 c-78 115
-175 219 -248 266 -60 38 -115 41 -164 10z m143 -220 c67 -74 167 -240 153
-254 -9 -9 -369 22 -380 33 -23 23 137 262 177 262 7 0 29 -18 50 -41z m907
-203 c239 -43 472 -250 545 -484 22 -71 25 -95 20 -165 -7 -104 -31 -187 -55
-187 -9 0 -37 25 -61 55 -54 67 -163 160 -235 200 -30 17 -76 54 -102 84 -61
68 -174 147 -238 166 -64 19 -149 19 -213 0 -64 -19 -125 -79 -147 -142 -22
-65 -21 -171 4 -235 27 -71 25 -77 -11 -42 -17 16 -53 73 -80 127 -47 96 -49
101 -49 185 1 134 62 283 143 345 40 30 129 76 182 92 54 17 202 17 297 1z
m-766 -191 c9 -21 -15 -146 -32 -173 -14 -22 -15 -22 -47 -5 -22 12 -54 17
-104 16 -87 -1 -145 -26 -197 -84 -20 -21 -39 -39 -43 -39 -4 0 -43 35 -88 78
-44 42 -102 94 -128 115 -26 21 -47 42 -47 47 0 8 79 28 195 49 28 5 148 9
268 10 184 1 219 -1 223 -14z m-904 -141 c110 -35 160 -61 239 -127 114 -95
208 -241 244 -382 19 -77 19 -211 -1 -289 -39 -152 -121 -252 -277 -339 l-86
-48 -179 3 -179 3 -104 52 c-178 90 -279 188 -359 348 -47 93 -61 156 -62 280
-2 193 77 334 247 440 96 60 188 84 327 84 89 1 121 -3 190 -25z m1448 -54
c24 -13 39 -59 29 -87 -10 -27 -65 -63 -97 -63 -29 0 -94 27 -104 43 -16 24
-8 68 17 92 20 21 34 25 80 25 31 0 65 -4 75 -10z m-672 -126 c54 -22 87 -59
137 -150 60 -109 123 -184 209 -246 39 -28 101 -76 138 -107 79 -65 83 -86 24
-115 -34 -17 -46 -18 -100 -8 -63 12 -97 31 -128 73 -17 23 -17 27 -1 69 34
94 -3 123 -128 100 -95 -17 -129 -34 -129 -64 0 -20 11 -30 65 -55 84 -40 102
-67 85 -124 -26 -87 -128 -142 -217 -119 -24 7 -49 10 -54 7 -16 -10 -10 -44
11 -65 17 -17 33 -20 107 -20 l87 0 111 -109 c116 -115 141 -131 206 -131 53
0 114 53 122 108 6 34 -4 128 -19 195 -5 23 0 33 37 67 24 22 52 43 61 46 9 3
50 -10 90 -28 l73 -33 210 0 210 0 50 28 c27 15 54 27 59 27 5 0 20 9 32 21
26 24 38 20 59 -21 19 -36 10 -59 -24 -66 -87 -18 -158 -61 -148 -88 9 -22 29
-20 127 9 68 20 87 23 97 12 29 -29 73 -263 93 -497 14 -160 13 -206 -5 -224
-13 -13 -12 -28 16 -133 74 -286 96 -498 86 -823 -6 -198 -22 -298 -72 -464
-140 -464 -410 -789 -837 -1011 -241 -125 -410 -170 -858 -225 -198 -25 -249
-40 -297 -88 -76 -78 -96 -155 -113 -447 -9 -156 -31 -312 -47 -338 -3 -4 -18
-5 -33 -2 -23 5 -30 2 -35 -15 -4 -12 -4 -32 -1 -46 4 -13 2 -33 -4 -44 -13
-25 -79 -75 -87 -66 -4 3 -9 36 -12 74 -7 76 -22 85 -33 20 -17 -101 -33 -118
-94 -98 -38 13 -48 27 -58 81 -6 37 -30 67 -39 52 -3 -4 -8 -23 -12 -40 -3
-18 -10 -35 -15 -38 -15 -9 -84 80 -122 156 -95 191 -145 349 -267 834 -91
364 -154 828 -121 889 10 20 8 30 -13 72 -41 79 -84 133 -114 140 -16 4 -62
23 -103 42 -41 19 -100 45 -131 57 -31 12 -125 62 -210 110 -314 180 -504 319
-669 491 -118 123 -133 152 -138 268 -5 109 7 151 54 199 54 54 108 71 203 64
86 -5 104 -13 231 -95 115 -75 273 -157 340 -177 30 -9 78 -25 105 -36 74 -29
245 -59 331 -59 66 0 75 2 72 18 -9 47 -239 182 -439 257 -53 20 -106 46 -118
59 -26 28 -85 164 -107 249 -10 39 -14 87 -12 132 4 68 7 75 105 240 55 94
135 233 178 310 42 77 89 157 103 178 29 44 105 87 152 87 37 0 52 -15 139
-134 36 -51 93 -112 132 -144 79 -65 224 -152 253 -152 10 0 43 -11 73 -25
105 -50 350 -54 504 -9 83 24 199 89 263 146 70 62 148 171 176 245 46 124 46
398 0 529 -11 32 -20 74 -20 94 0 45 41 107 83 125 41 18 41 18 85 -1z m1189
-234 c65 -100 103 -176 103 -208 0 -58 -97 -105 -240 -116 -129 -10 -237 7
-315 50 -36 20 -65 40 -65 45 0 14 43 11 82 -5 27 -12 49 -13 99 -6 81 12 128
31 175 72 55 49 73 98 74 198 l1 85 25 -30 c14 -16 41 -55 61 -85z m-3440 -30
c79 -10 151 -34 298 -96 106 -45 117 -44 156 14 50 73 61 85 71 70 4 -7 8 -52
8 -100 0 -80 -2 -89 -23 -103 -13 -8 -39 -18 -58 -21 -47 -9 -79 -27 -110 -61
-33 -34 -148 -227 -276 -459 -55 -101 -101 -174 -110 -174 -50 0 -123 418
-123 705 0 149 10 208 38 224 22 13 34 13 129 1z m4533 -432 c100 -43 149
-120 150 -234 0 -91 -26 -178 -93 -308 -134 -262 -472 -706 -537 -706 -14 0
-21 9 -25 38 -4 20 -13 64 -22 97 -10 42 -16 125 -18 275 -1 118 -6 256 -10
306 l-8 91 35 39 c38 42 116 160 161 243 15 29 35 55 44 58 22 9 84 -27 102
-59 9 -15 22 -30 30 -33 20 -8 60 22 67 51 8 32 -15 58 -78 90 -27 13 -48 28
-48 32 0 12 43 35 80 43 48 10 116 1 170 -23z m-1882 -74 c48 -13 80 -140 48
-189 -20 -30 -48 -32 -93 -4 -37 23 -123 123 -123 143 0 40 98 68 168 50z
m1352 -6 c0 -22 -60 -119 -70 -113 -9 5 -40 97 -40 117 0 4 25 8 55 8 37 0 55
-4 55 -12z m-910 -3405 c-155 -288 -432 -602 -612 -694 l-38 -19 25 46 c25 47
32 84 17 84 -4 0 -30 -23 -57 -51 -66 -67 -85 -74 -141 -50 -26 12 -44 27 -44
36 0 9 16 37 35 62 48 63 34 86 -23 38 -37 -31 -50 -31 -64 0 -19 41 6 119 77
245 36 63 69 118 74 123 4 4 95 30 202 58 226 58 361 102 479 158 47 22 91 40
98 40 9 1 -1 -27 -28 -76z m-2439 -14 c9 -35 28 -115 43 -178 26 -112 26 -114
8 -155 -27 -60 -126 -217 -154 -243 -41 -38 -86 -34 -133 12 l-35 36 0 102 c0
84 5 112 24 160 50 122 195 342 220 334 6 -2 18 -32 27 -68z"/>
<path d="M2830 6569 c-19 -10 -44 -19 -56 -19 -53 0 -152 -110 -175 -194 -6
-23 -9 -86 -7 -141 3 -87 7 -107 33 -153 79 -145 207 -215 400 -216 98 -1 101
0 168 37 117 66 173 171 165 310 -5 99 -40 172 -121 251 -70 69 -118 95 -229
125 -95 26 -133 26 -178 0z m59 -75 c41 -34 42 -75 3 -114 -52 -52 -138 -49
-181 6 -22 28 -18 58 13 93 44 49 117 55 165 15z"/>
<path d="M2515 5605 c-128 -20 -244 -66 -354 -140 -83 -54 -216 -192 -242
-248 -18 -41 -25 -87 -13 -87 3 0 59 50 124 111 65 61 140 127 167 146 57 41
245 133 323 158 89 29 114 44 99 61 -6 8 -14 14 -18 13 -3 -1 -42 -7 -86 -14z"/>
<path d="M2594 5455 c-38 -19 -73 -35 -78 -35 -5 0 -38 -21 -75 -47 -99 -71
-223 -199 -254 -264 -27 -53 -28 -89 -4 -89 6 0 59 48 117 108 133 136 258
230 382 290 54 26 98 53 98 60 0 8 -18 12 -58 12 -47 0 -72 -7 -128 -35z"/>
<path d="M1266 4797 c-32 -48 29 -151 75 -126 40 21 14 110 -41 139 -16 8 -22
6 -34 -13z"/>
<path d="M1100 4720 c-42 -42 -18 -98 47 -107 36 -5 43 -2 57 19 20 30 9 67
-26 92 -30 21 -54 20 -78 -4z"/>
<path d="M1410 4681 c0 -20 25 -35 41 -25 14 9 10 31 -7 38 -26 10 -34 7 -34
-13z"/>
<path d="M1223 4578 c-30 -34 -36 -63 -23 -119 13 -53 44 -84 74 -73 9 4 26
24 36 45 16 31 30 42 71 56 56 20 71 37 58 70 -10 27 -62 43 -140 43 -45 0
-59 -4 -76 -22z"/>
<path d="M1082 4528 c-16 -16 3 -48 29 -48 25 0 35 25 19 45 -15 18 -32 19
-48 3z"/>
<path d="M6076 5899 c-30 -35 -32 -47 -11 -76 24 -34 54 -36 86 -3 33 33 37
69 11 93 -28 25 -57 20 -86 -14z"/>
<path d="M5835 5860 c-8 -12 3 -50 14 -50 15 0 33 30 27 45 -6 17 -32 20 -41
5z"/>
<path d="M5924 5771 c-44 -11 -54 -19 -54 -46 0 -18 9 -29 33 -41 17 -9 55
-39 84 -65 58 -55 79 -60 93 -24 19 51 -12 134 -63 165 -34 21 -44 22 -93 11z"/>
<path d="M6152 5748 c-25 -31 -17 -76 13 -84 47 -12 86 51 53 84 -16 16 -53
15 -66 0z"/>
<path d="M1164 2821 c-72 -44 -81 -98 -34 -192 l31 -60 14 -327 c15 -336 28
-511 46 -642 47 -342 168 -784 205 -748 3 4 -8 91 -25 195 -69 424 -84 579
-100 1003 -21 535 -21 527 0 546 27 25 59 96 59 132 0 23 -10 43 -33 68 -28
31 -41 37 -83 41 -37 3 -57 -1 -80 -16z"/>
<path d="M5525 2486 c-17 -7 -44 -28 -59 -47 -24 -29 -27 -39 -22 -76 3 -24
12 -57 21 -73 22 -42 19 -68 -24 -230 -21 -80 -68 -262 -105 -405 -37 -143
-103 -377 -146 -520 -88 -293 -94 -315 -82 -315 36 0 356 883 457 1260 20 74
45 149 56 165 78 122 77 184 -6 235 -38 23 -49 24 -90 6z"/>
<path d="M804 2450 c-34 -13 -74 -69 -74 -102 0 -16 14 -62 31 -101 24 -54 38
-111 55 -227 40 -268 170 -718 198 -689 3 2 -2 38 -10 79 -8 41 -23 129 -34
195 -11 66 -27 158 -36 205 -13 64 -17 147 -19 338 l-1 253 -25 23 c-29 29
-57 37 -85 26z"/>
<path d="M6000 2383 c-8 -3 -32 -22 -52 -41 -45 -43 -49 -76 -17 -149 18 -43
19 -54 9 -108 -25 -132 -258 -887 -380 -1235 -103 -290 -92 -321 26 -76 169
352 310 712 408 1046 21 69 48 161 61 205 13 44 42 110 65 147 44 73 47 92 26
143 -23 55 -92 87 -146 68z"/>
<path d="M4962 1919 c-63 -31 -76 -64 -62 -150 6 -37 9 -83 5 -101 -15 -68
-162 -440 -322 -815 -3 -7 1 -13 9 -13 41 0 288 427 384 660 52 128 87 202
115 240 46 62 39 127 -17 167 -46 32 -66 34 -112 12z"/>
<path d="M1935 1600 c-17 -18 -17 -37 -12 -232 6 -217 20 -341 57 -508 29
-137 59 -220 77 -220 12 0 14 8 9 43 -14 103 -26 301 -50 826 -5 95 -11 111
-47 111 -9 0 -24 -9 -34 -20z"/>
<path d="M4177 1430 c-18 -15 -36 -56 -72 -167 -26 -82 -82 -241 -125 -354
-43 -113 -81 -220 -85 -237 -27 -124 143 147 264 421 79 177 109 277 93 311
-18 40 -45 49 -75 26z"/>
<path d="M3398 420 c-42 -4 -88 -10 -102 -14 -15 -4 -104 -11 -199 -16 -302
-17 -390 -56 -186 -83 134 -17 1936 -16 1997 2 92 26 37 56 -133 72 -60 6
-157 18 -215 27 -83 12 -207 16 -595 18 -269 1 -525 -2 -567 -6z"/>
</g>
</svg>
